<?xml version="1.0" standalone="no"?>
<!DOCTYPE svg PUBLIC "-//W3C//DTD SVG 20010904//EN" "http://www.w3.org/TR/2001/REC-SVG-20010904/DTD/svg10.dtd">
<svg version="1.0" xmlns="http://www.w3.org/2000/svg" width="455.000000pt" height="368.000000pt"
        viewBox="0 0 455.000000 368.000000" preserveAspectRatio="xMidYMid meet">

        <g transform="translate(0.000000,368.000000) scale(0.100000,-0.100000)" fill="#50C878" stroke="none">
                <path d="M2113 2743 c-137 -190 -167 -265 -145 -365 7 -29 27 -77 45 -105 88
-142 119 -190 136 -212 l19 -25 78 120 c102 156 128 220 121 295 -3 31 -14 76
-25 100 -16 38 -168 259 -177 259 -1 0 -25 -30 -52 -67z m109 -165 c72 -109
74 -168 8 -278 -54 -92 -74 -94 -123 -12 -48 79 -62 133 -47 189 13 55 84 153
109 153 11 0 32 -21 53 -52z" />
                <path d="M1560 2092 c0 -254 25 -289 305 -433 99 -50 184 -96 190 -100 5 -5
15 -9 22 -9 22 0 18 262 -5 332 -32 97 -67 127 -267 233 -60 32 -138 73 -172
91 -33 19 -64 34 -67 34 -3 0 -6 -67 -6 -148z m237 -73 c65 -34 132 -75 149
-91 52 -49 81 -171 51 -212 -12 -17 -20 -14 -127 39 -138 69 -175 96 -201 146
-19 38 -28 157 -12 172 11 12 18 9 140 -54z" />
                <path d="M2725 2222 c-16 -10 -82 -46 -145 -79 -63 -34 -139 -74 -168 -90 -75
-40 -137 -108 -156 -174 -17 -57 -23 -313 -8 -323 9 -5 321 153 396 200 48 30
90 85 111 143 16 45 24 333 9 338 -5 2 -22 -5 -39 -15z m-47 -223 c3 -73 1
-78 -30 -120 -27 -35 -58 -57 -159 -108 -79 -41 -131 -62 -142 -58 -13 5 -17
19 -17 67 0 72 24 127 72 162 53 38 242 137 258 135 12 -2 16 -20 18 -78z" />
                <path d="M1560 1523 c0 -246 23 -282 255 -403 66 -34 153 -80 192 -101 40 -22
75 -39 78 -39 11 0 5 284 -7 324 -15 51 -59 119 -96 144 -29 21 -81 50 -212
120 -47 24 -108 58 -137 73 -29 16 -57 29 -62 29 -7 0 -11 -51 -11 -147z m241
-69 c164 -86 201 -129 203 -236 2 -89 -7 -91 -126 -29 -146 75 -166 89 -199
134 -26 36 -29 48 -29 114 0 68 2 73 21 73 12 0 70 -25 130 -56z" />
                <path d="M2710 1646 c-25 -12 -81 -42 -125 -65 -44 -24 -109 -59 -145 -79 -98
-52 -136 -87 -167 -150 -26 -54 -28 -66 -31 -214 -2 -87 -1 -158 1 -158 3 0
54 26 114 58 59 32 148 78 197 102 98 50 161 104 191 165 17 34 20 65 23 203
2 89 0 162 -5 161 -4 0 -28 -10 -53 -23z m-30 -206 c0 -77 -15 -119 -57 -158
-34 -31 -268 -146 -282 -138 -16 10 -14 120 3 159 7 18 26 46 42 61 36 36 241
146 272 146 21 0 22 -4 22 -70z" />
        </g>
</svg>