<?xml version="1.0" standalone="no"?>
<!DOCTYPE svg PUBLIC "-//W3C//DTD SVG 20010904//EN" "http://www.w3.org/TR/2001/REC-SVG-20010904/DTD/svg10.dtd">
<svg version="1.0" xmlns="http://www.w3.org/2000/svg" width="455.000000pt" height="368.000000pt"
    viewBox="0 0 455.000000 368.000000" preserveAspectRatio="xMidYMid meet">

    <g transform="translate(0.000000,368.000000) scale(0.100000,-0.100000)" fill="#50C878" stroke="none">
        <path d="M2137 2785 c-84 -115 -157 -237 -168 -278 -18 -72 -7 -157 29 -220
40 -70 161 -257 167 -257 7 0 148 218 172 265 35 69 46 135 32 191 -7 27 -19
63 -28 79 -32 60 -164 245 -175 245 -6 0 -19 -12 -29 -25z m86 -219 c62 -93
66 -154 18 -240 -67 -119 -76 -121 -136 -26 -37 60 -40 70 -39 135 0 64 3 75
38 128 51 75 71 76 119 3z" />
        <path d="M1557 2243 c-4 -3 -7 -70 -7 -148 0 -105 4 -154 17 -191 16 -48 63
-119 92 -139 49 -33 416 -225 430 -225 7 0 11 46 11 134 0 160 -19 238 -75
303 -38 44 -68 63 -260 163 -66 35 -138 73 -161 86 -22 13 -44 21 -47 17z
m185 -202 c29 -16 80 -43 113 -60 75 -40 103 -65 126 -116 23 -49 26 -143 5
-151 -17 -7 -224 97 -268 134 -41 35 -68 96 -68 158 0 76 10 80 92 35z" />
        <path d="M2735 2231 c-17 -9 -97 -53 -180 -96 -187 -97 -221 -119 -262 -173
-47 -61 -55 -100 -60 -264 -5 -169 -2 -176 64 -136 21 13 98 54 171 91 212
107 227 118 279 212 26 48 28 57 31 208 2 88 0 163 -5 168 -5 5 -21 1 -38 -10z
m-60 -236 c0 -108 -25 -136 -193 -222 -146 -74 -152 -74 -152 -2 0 58 29 127
66 157 46 37 245 142 264 139 12 -2 15 -18 15 -72z" />
        <path d="M1557 1673 c-4 -3 -7 -69 -7 -145 0 -111 4 -149 19 -193 37 -105 72
-134 296 -249 72 -36 150 -77 174 -91 24 -13 48 -22 53 -19 4 3 8 67 8 143 0
151 -12 207 -60 273 -40 56 -50 63 -250 170 -36 20 -99 54 -142 77 -83 45 -82
44 -91 34z m167 -188 c27 -14 78 -41 115 -60 85 -44 124 -79 145 -129 21 -51
22 -135 0 -143 -19 -7 -227 98 -268 136 -52 48 -82 149 -60 205 8 21 13 20 68
-9z" />
        <path d="M2705 1649 c-180 -90 -351 -188 -382 -218 -20 -19 -47 -60 -62 -90
-23 -51 -26 -70 -29 -208 -4 -138 -2 -153 13 -153 9 0 58 22 108 49 51 27 138
72 194 101 129 67 165 97 200 168 26 54 28 66 31 211 2 84 0 157 -5 162 -4 4
-35 -5 -68 -22z m-27 -201 c3 -61 -20 -129 -55 -160 -25 -22 -249 -138 -266
-138 -33 0 -36 83 -7 148 27 59 57 84 174 143 55 28 105 55 111 60 24 23 40 4
43 -53z" />
    </g>
</svg>